Marilyn Monroe  Don t Bother to Knock (1952)      
Verenigde Staten
Drama / Thriller
76 minuten

geregisseerd door Roy Ward Baker
met Richard Widmark, Marilyn Monroe en Anne Bancroft

Nell Forbes is ontslagen uit een inrichting en krijgt via haar oom werk als babysitter in een hotel. Wanneer ze haar overbuurman Jed Towers ontmoet, krijgt ze het vreemde idee dat hij haar overleden ex-man is. Niets houdt haar tegen hem terug te winnen. Zelfs niet Bunny; het meisje op wie ze moet oppassen

English

Airline pilot Jed stays at the New York hotel where girlfriend Lyn is a singer. He sees Nell in a window opposite his and they get chummy. When the girl she's baby-sitting, Bunny, enters Nell goes crazy and sends her to her room. She fantasizes that Jed is her long lost fiance. Jed comes to realize that Nell is more than a little whacko.


Spotinformatie 
Categorie : Beeld 
Formaat : DVD5 
Bron : Retail
Menu : Yes
Audio : English 
Subs : English, Dutch 
Cover : Yes 
Genre : Drama
Thriller

Video
ID                               : 224 (0xE0)
Format                           : MPEG Video
Format version                   : Version 2
Format profile                   : Main@Main
Format settings, Matrix          : Default
Duration                         : 24mn 47s
Bit rate mode                    : Variable
Bit rate                         : 5 354 Kbps
Nominal bit rate                 : 7 500 Kbps
Width                            : 720 pixels
Height                           : 576 pixels
Display aspect ratio             : 4/3
Frame rate                       : 25.000 fps
Standard                         : PAL
Colorimetry                      : 4:2:0
Scan type                        : Progressive
Scan order                       : Top Field First
Bits/(Pixel*Frame)               : 0.516
Stream size                      : 949 MiB (93%)

Audio
ID                               : 128 (0x80)
Format                           : AC-3
Format/Info                      : Audio Coding 3
Duration                         : 24mn 47s
Bit rate mode                    : Constant
Bit rate                         : 192 Kbps
Channel(s)                       : 2 channels
Channel positions                : L R
Sampling rate                    : 48.0 KHz
Video delay                      : -80ms
Stream size                      : 34.0 MiB (3%)


Weblink :  http://www.moviemeter.nl/film/7410 
Weblink :  http://www.imdb.com/title/tt0044557
*****************************************

Brought to you by 


2Lions Team

meer zien??
Kom dan eens kijken op ons forum 




2Lions the site to be for all your Dutch MOVIES and more

******************************************


DON T HIT AND RUN Niet gelijk afhaken als de FILM binnen is blijf seeden. 

Don`t quit after you finished the download, but keep seeding


There are fake torrents from uploaders who use our team name.
Those are not ours, or members from our team.
We 2Lions-Team are not responsible for the fake posts on our name

Wij 2Lions-Team zijn niet verantwoordelijk voor die zieke FAKE posten die op onze naam worden gedaan

Please check our site !!!	 


 
 
 
